<svg xmlns="http://www.w3.org/2000/svg" viewBox="0 0 1200 720">
  <defs>
    <linearGradient id="g2" x1="0" x2="1">
      <stop offset="0" stop-color="#34c759" />
      <stop offset="1" stop-color="#2fb0ff" />
    </linearGradient>
  </defs>
  <rect width="1200" height="720" rx="24" fill="#fff" />
  <g transform="translate(80,60)">
    <rect x="40" y="40" width="480" height="340" rx="18" fill="#f7fff4"/>
    <rect x="560" y="40" width="520" height="340" rx="18" fill="url(#g2)" opacity="0.08"/>
    <g transform="translate(80,100)" fill="#0b8a3e">
      <rect x="0" y="0" width="360" height="38" rx="8" fill="#fff" stroke="#eaf9f0"/>
      <rect x="0" y="64" width="280" height="38" rx="8" fill="#fff" stroke="#eaf9f0"/>
      <rect x="0" y="128" width="200" height="38" rx="8" fill="#fff" stroke="#eaf9f0"/>
    </g>
    <g transform="translate(600,100)">
      <rect x="0" y="0" width="360" height="220" rx="12" fill="#fff"/>
      <g transform="translate(22,22)">
        <rect x="0" y="0" width="48" height="48" rx="10" fill="#34c759" />
        <path d="M68 12h120v8H68zM68 44h120v8H68zM68 76h80v8H68z" fill="#dff8e6"/>
      </g>
      <g transform="translate(300,22)">
        <circle cx="20" cy="20" r="20" fill="#2fb0ff" />
        <path d="M16 20c1.5-3 5-4 8-4s6.5 1 8 4" stroke="#fff" stroke-width="2" stroke-linecap="round" stroke-linejoin="round"/>
      </g>
    </g>
    <text x="36" y="460" font-family="Inter, sans-serif" font-weight="700" font-size="34" fill="#071022">inteliTask</text>
  </g>
</svg>