<svg xmlns="http://www.w3.org/2000/svg" viewBox="0 0 1200 720">
  <defs>
    <linearGradient id="g" x1="0" x2="1">
      <stop offset="0" stop-color="#2fb0ff" />
      <stop offset="1" stop-color="#6a8cff" />
    </linearGradient>
  </defs>
  <rect width="1200" height="720" rx="24" fill="#fff" />
  <g transform="translate(80,60)">
    <rect x="0" y="80" width="420" height="320" rx="18" fill="#f0f6ff" />
    <rect x="480" y="40" width="560" height="480" rx="18" fill="url(#g)" opacity="0.08" />
    <g transform="translate(36,110)" fill="#2b5dbb">
      <rect x="0" y="0" width="200" height="140" rx="10" fill="#fff" stroke="#e6f3ff"/>
      <rect x="220" y="0" width="140" height="60" rx="8" fill="#fff" stroke="#e6f3ff"/>
      <rect x="220" y="80" width="140" height="60" rx="8" fill="#fff" stroke="#e6f3ff"/>
    </g>
    <g transform="translate(36,270)">
      <rect x="0" y="0" width="360" height="26" rx="6" fill="#ffffff" stroke="#e6eefc"/>
      <rect x="0" y="46" width="220" height="26" rx="6" fill="#ffffff" stroke="#e6eefc"/>
    </g>
    <g transform="translate(520,120)">
      <rect x="0" y="0" width="380" height="220" rx="12" fill="#fff"/>
      <g transform="translate(24,22)" fill="#2fb0ff">
        <rect x="0" y="0" width="96" height="22" rx="6"/>
        <rect x="0" y="40" width="240" height="22" rx="6"/>
        <rect x="0" y="80" width="160" height="22" rx="6"/>
      </g>
      <g transform="translate(280,24)" fill="#6a8cff">
        <circle cx="30" cy="30" r="30"/>
        <path d="M22 30h16" stroke="#fff" stroke-width="4" stroke-linecap="round"/>
      </g>
    </g>
    <text x="36" y="460" font-family="Inter, sans-serif" font-weight="700" font-size="34" fill="#071022">Rental System</text>
  </g>
</svg>